<svg width="2291" height="2291" xmlns="http://www.w3.org/2000/svg" xmlns:xlink="http://www.w3.org/1999/xlink" xmlns:svg="http://www.w3.org/2000/svg">
  <!-- Created with SVG-edit - http://svg-edit.googlecode.com/ -->
  <g display="inline">
    <title>outer round</title>
    <circle fill="#ffffff" stroke-width="20" cx="1162.21345" cy="1111.94303" r="856.90944" id="svg_2" fill-opacity="1" stroke="#01458E"/>
  </g>
  <g display="inline">
    <title>inner round</title>
    <path fill="#01458E" fill-opacity="0" stroke="#01458E" stroke-width="10" stroke-dasharray="null" stroke-linejoin="null" stroke-linecap="null" d="m556.22134,1112.15743c0,-336.2037 272.32499,-608.52869 608.52868,-608.52869c336.2037,0 608.52869,272.32499 608.52869,608.52869c0,336.20369 -272.32499,608.52868 -608.52869,608.52868c-336.20369,0 -608.52868,-272.32499 -608.52868,-608.52868z" id="svg_4"/>
  </g>
  <g display="inline">
    <title>word YHJJ</title>
    <text fill="#01458E" stroke-dasharray="null" stroke-linejoin="null" stroke-linecap="null" x="865.31686" y="400.48324" id="svg_6" font-size="24" font-family="fantasy" text-anchor="middle" xml:space="preserve" transform="rotate(37.60788345336914 1578.6126708984373,504.7046813964845) matrix(7.661267430626882,0,0,7.18064812560348,-5050.627612805614,-2302.3364129034317) " stroke="#01458E" font-style="normal" font-weight="normal">救</text>
    <text stroke-width="0" fill="#01458E" stroke-dasharray="null" stroke-linejoin="null" stroke-linecap="null" x="793.7399" y="404.66849" font-size="24" font-family="fantasy" text-anchor="middle" xml:space="preserve" transform="rotate(-42.23213577270508 669.6139526367186,586.6340942382812) matrix(6.749584352262911,0,0,7.146860144400358,-4687.973139495569,-2237.4467535147205) " stroke="#01458E" font-style="normal" font-weight="bold" id="svg_12">玉</text>
    <text stroke-width="1.1" id="svg_3" fill="#01458E" stroke-dasharray="null" stroke-linejoin="null" stroke-linecap="null" x="814.59416" y="390.89184" font-size="24" font-family="Sans-serif" text-anchor="middle" xml:space="preserve" transform="rotate(-17.260740280151367 947.6951293945309,424.3649597167968) matrix(6.974225112220281,0,0,7.37109046559781,-4733.327233025104,-2386.2691451492087) " stroke="#01458E" font-style="normal" font-weight="normal">环</text>
    <text id="svg_5" fill="#01458E" stroke-dasharray="null" stroke-linejoin="null" stroke-linecap="null" x="845.19906" y="399.9715" font-size="24" font-family="Sans-serif" text-anchor="middle" xml:space="preserve" transform="rotate(11.01144027709961 1272.2137451171877,392.98278808593733) matrix(6.821337804287258,0,0,7.247756603967081,-4493.135656831819,-2436.6083904234843) " stroke="#01458E" font-style="normal" font-weight="normal">急</text>
      </g>

  <!--<line id="svg_7" y2="1013" x2="1903.66667" y1="1013" x1="440.55556"-->
        <!--stroke-width="5" stroke="#000000" fill="none"/>-->

  <!--<line id="svg_9" y2="1064.55556" x2="1948.12725" y1="1064.55556" x1="381.88889"-->
        <!--stroke-width="5" stroke="#000000" fill="none"/>-->
  <defs>
    <path id="a1"
          d="M380,1064 A400,415 0 1,0 1950,1065"
          stroke="#01458E" fill="none"/>
  </defs>
  <text font-size="137" stroke="#01458E" stroke-width="5"
        fill="#01458E" letter-spacing="0.04em">
    <textPath xlink:href="#a1">Yuhuan Emergency Medical Services</textPath>
  </text>

  <rect x="425" y="999" height="30" width="25"
        rx="5" ry="5"
        style="stroke: #007cc2; stroke-width: 15;
             fill: #01458E;"/>
  <rect x="1888" y="999" height="30" width="25"
        rx="5" ry="5"
        style="stroke: #007cc2; stroke-width: 15;
             fill: #01458E;"/>
  <path stroke="null" fill="#01458E" d="m1437.84865,703.59281c29.26772,56.87289 68.45803,101.65899 125.3257,124.91422c-21.84655,-61.50141 -63.62178,-103.14231 -125.3257,-124.91422zm-511.14218,0c-29.26772,56.87289 -68.45803,101.65899 -125.3257,124.91422c21.84655,-61.50141 63.62178,-103.14231 125.3257,-124.91422zm-35.47973,613.54783c-25.55713,60.62891 36.64715,109.42451 32.81151,147.30515c-42.02541,-0.57752 -115.27796,-67.64663 -188.36381,-67.10232c69.29188,83.1986 203.91486,73.75856 238.81093,86.44361c-54.78311,-40.14089 -34.52085,-96.02072 -83.25863,-166.64644zm-66.87375,-83.5517c-38.27309,62.74794 22.88882,115.76916 19.01145,153.64979c-34.56259,-6.92216 -91.88887,-85.62507 -152.25868,-116.80788c28.97588,126.55951 175.27255,125.58314 195.32637,159.41684c-42.1088,-60.23421 -20.76253,-133.03707 -62.07914,-196.25867l0,-0.00009zm-31.81089,-100.47482c-38.27309,62.74794 1.62594,99.90975 -18.13596,147.3093c-33.56196,-33.36419 -52.65681,-87.7441 -93.93177,-124.21614c-17.719,86.37295 98.89307,122.40879 110.44171,169.99531c2.50152,-81.387 31.22723,-130.92219 1.62594,-193.08846l0.00009,0zm-15.92627,-104.70034c-46.77827,44.76535 -20.63748,90.3866 -40.44112,137.78615c-33.52022,-33.36419 -33.52022,-122.64142 -63.12151,-165.46226c-33.60362,86.37295 57.49307,164.71437 69.0417,212.30089c15.21756,-69.75312 41.85863,-130.92219 34.52085,-184.62487l0.00009,0.00009zm31.68584,-113.96171c-60.95347,24.4477 -50.6139,92.44328 -86.26042,129.49708c-7.67126,-50.04213 4.21085,-116.1265 -3.46041,-165.02181c-48.65439,54.99894 3.08518,143.99779 -3.41875,192.52755c39.06527,-58.44761 80.46528,-104.28489 93.13959,-157.00282zm56.32574,-98.55106c-55.19998,16.42447 -67.83263,67.22694 -106.93965,93.96819c5.00304,-52.33153 32.9783,-94.35044 39.10693,-143.24575c-41.77523,18.32747 -42.94264,117.63887 -49.44658,166.16448c39.10693,-38.96086 93.13959,-64.17305 117.27921,-116.88683l0.00009,-0.00009zm608.70114,501.23971c25.55713,60.62891 -36.64715,109.42451 -32.81151,147.30515c42.02541,-0.57752 115.27796,-67.64663 188.36381,-67.10232c-69.29188,83.1986 -203.91486,73.75856 -238.81093,86.44361c54.82476,-40.14089 34.52085,-96.02072 83.25863,-166.64644zm66.87375,-83.5517c38.27309,62.74794 -22.88882,115.76916 -19.01145,153.64979c34.60424,-6.92216 91.88887,-85.62507 152.25868,-116.80788c-28.97588,126.55951 -175.27255,125.58314 -195.28463,159.41684c42.06706,-60.23421 20.72087,-133.03707 62.03749,-196.25867l-0.00009,-0.00009zm31.85254,-100.47482c38.27309,62.74794 -1.66768,99.90975 18.13596,147.3093c33.52022,-33.36419 52.61516,-87.7441 93.89003,-124.21614c17.719,86.37295 -98.89307,122.40879 -110.44171,169.99531c-2.45978,-81.387 -31.22723,-130.92219 -1.58429,-193.08846zm15.88462,-104.70034c46.77827,44.76535 20.63748,90.3866 40.44112,137.78615c33.52022,-33.36419 33.52022,-122.64142 63.12151,-165.46226c33.64536,86.37295 -57.49307,164.71437 -69.0417,212.30089c-15.21756,-69.75312 -41.85863,-130.92219 -34.52085,-184.62487l-0.00009,0.00009zm-31.6441,-113.96171c60.91182,24.4477 50.57225,92.44328 86.21877,129.49708c7.67126,-50.04213 -4.21085,-116.1265 3.46041,-165.02181c48.69613,54.99894 -3.08518,143.99779 3.46041,192.52755c-39.10693,-58.44761 -80.50702,-104.28489 -93.13959,-157.00282zm-56.36739,-98.55106c55.19998,16.42447 67.83263,67.22694 106.93965,93.96819c-4.9613,-52.33153 -32.93656,-94.35044 -39.10693,-143.24575c41.81697,18.32747 42.94264,117.63887 49.44658,166.16448c-39.06527,-38.96086 -93.13959,-64.17305 -117.27921,-116.88683l-0.00009,-0.00009z" id="svg_15"/>
  <path stroke="null" fill="#01458E" d="m841.72713,1534.61483c120.91313,35.40627 196.22156,-85.62143 340.839,-9.65622c101.4462,-74.68037 222.94667,5.14823 337.14704,-15.45358c-92.92942,77.28558 -193.15893,-3.80556 -306.18454,29.05768c18.9215,9.11832 39.77295,25.39879 62.55426,48.85038c5.41216,8.25137 -2.22361,21.10862 -12.041,10.94106c-30.16532,-31.2228 -57.43586,-50.1663 -81.76952,-56.82608c-27.39637,13.16401 -53.40822,37.58471 -78.87465,67.12255c-7.00643,5.06375 -16.19447,-1.38709 -10.15297,-10.13638c14.6002,-20.00164 33.94129,-38.33609 60.12089,-54.24308c-105.68359,-20.60181 -211.40918,66.95358 -311.63861,-9.65622l0.00009,-0.00009z" id="svg_14"/>
  <path stroke="null" fill="#01458E" d="m1096.54025,756.54053l0,0zm0,0l0,151.91149c-44.39722,-24.91973 -87.66357,-50.99015 -132.3959,-75.55131c-28.60688,51.64056 -58.80536,101.6843 -88.04052,152.70786c43.64331,25.67436 88.50126,50.16046 131.64199,76.35601c-43.68515,25.63687 -88.62688,50.04791 -131.64199,76.35185c29.6959,50.30225 59.18231,100.78796 88.04052,151.91565c45.15113,-23.63558 89.21332,-52.64537 133.19165,-74.75086c-0.04185,44.18175 0.04185,101.63431 0,151.10688c58.97291,0 117.90398,0 176.83496,0c0,-50.63991 0,-101.27574 0,-151.90316c44.48099,24.84467 87.78919,50.8776 132.43774,75.54715c29.27701,-50.95266 59.47549,-101.01306 87.99868,-152.71202c-43.47575,-25.83282 -88.50126,-50.1438 -131.60006,-76.35185c44.18782,-25.11984 89.17139,-49.46007 131.60006,-76.36018c-29.6959,-50.52736 -58.30278,-102.18466 -88.79443,-151.90732c-43.35013,24.91973 -88.3337,52.45359 -131.64199,74.7467c0,-50.36899 0,-100.73789 0,-151.10688c-58.67973,0 -118.95107,0 -177.6308,0" id="svg_3"/>
  <g stroke="null" id="svg_snake">
    <path stroke="null" fill="#ffffff" d="m1178.01877,1053.50534c-8.06793,1.05101 -15.96949,2.22351 -24.86917,2.42867c-0.7902,-22.66203 -2.41206,-62.15297 -2.41206,-90.40933c0,-10.64009 0.8733,-22.33538 -0.7902,-29.87265c-1.28921,-5.7702 -6.15488,-8.39567 -7.23618,-13.71781c-2.74479,-13.66752 7.98474,-26.66089 18.46473,-28.25627c25.03553,-3.8147 34.72532,25.39217 20.04504,41.17016c-1.41395,39.22302 -1.41395,79.84462 -3.20226,118.65723l0.00009,0z" id="svg_4"/>
    <path stroke="null" fill="#ffffff" d="m1185.2134,963.90839c38.92569,0.21353 78.7246,24.83943 78.55832,61.34905c-0.12473,32.87916 -35.80662,45.2947 -64.91771,50.04736c-17.5498,2.85582 -36.80473,-0.01255 -53.7307,5.64871c-10.27207,3.43784 -23.74632,17.38591 -22.45711,30.68076c1.3724,13.64242 17.63298,15.56864 28.07142,18.56678c0,8.86884 0,17.74604 0,26.62743c-28.73681,-2.45377 -50.81963,-15.0661 -53.7307,-39.54541c-1.99623,-17.09281 6.44598,-38.98012 24.07905,-49.23917c26.36629,-15.37184 71.19732,-7.42415 95.4011,-20.98708c6.77871,-3.81052 14.34763,-12.75047 15.22092,-20.99127c2.32888,-21.43924 -24.24533,-39.19792 -47.28472,-40.36197c0.54065,-7.00127 -1.0813,-16.13811 0.7902,-21.79519l-0.00009,0z" id="svg_5"/>
    <path stroke="null" fill="#ffffff" d="m1145.95506,967.94499c3.65964,4.38417 0.5822,15.54763 1.58031,22.60338c-14.76346,5.82041 -26.36629,14.55947 -38.46823,23.41157c-11.4781,8.34538 -23.37204,19.99465 -40.09009,20.17471c-2.37051,-20.61441 11.93557,-33.74592 24.03742,-44.39438c13.59906,-11.92563 35.34915,-14.93633 52.94059,-21.79519l0,-0.00009zm-59.34502,45.20676l0,0c5.44795,13.37442 15.84476,-10.99604 3.20226,-5.65298c-3.86764,1.63303 -4.24192,3.07772 -3.20226,5.65298z" id="svg_6"/>
    <path stroke="null" fill="#01458E" d="m1089.81229,1007.49885c12.6425,-5.34306 2.24569,19.0274 -3.20226,5.65298c-1.03966,-2.57526 -0.66538,-4.01986 3.20226,-5.65298z" id="svg_7"/>
    <path stroke="null" fill="#ffffff" d="m1178.01877,1079.34558c-1.70504,39.47002 -1.74668,80.56897 -3.24381,120.27353c11.56129,1.91358 25.493,-15.27553 24.86917,-24.21967c-0.5822,-8.84792 -10.93745,-11.03787 -19.25493,-14.53018c0,-7.53309 0,-15.0661 0,-22.59919c18.17363,7.31529 44.08246,20.00301 39.29998,45.20676c-3.49336,18.40763 -26.44948,24.34117 -44.91421,29.8601c-1.58031,39.04296 -1.49713,79.7315 -3.20226,118.6656c-3.99237,0 -7.98474,0 -12.01875,0c-1.87141,-37.11674 -1.49713,-76.50309 -3.20226,-113.81663c-1.58031,-1.79636 -5.32313,1.05101 -8.81649,0c-0.45747,3.66811 5.36477,1.04264 5.61432,4.03241c0,8.3412 0,16.68667 0,25.02786c-38.21868,7.50791 -26.36629,-52.99521 3.20226,-46.00649c-1.53876,-39.06806 -1.58031,-79.68966 -3.20226,-118.6656c8.10948,-1.26881 15.76157,-2.97722 24.86917,-3.22849l0.00009,0z" id="svg_8"/>
    <path stroke="null" fill="#ffffff" d="m1178.80897,1224.64697c27.19804,3.28288 37.88595,23.21469 40.88029,50.85546c-12.9336,-9.30435 -22.04127,-22.4736 -40.88029,-25.83606c0,-8.34538 0,-16.67403 0,-25.0195l0,0.00009z" id="svg_9"/>
  </g>
</svg>
