<svg width="200" height="200" viewBox="0 0 200 200" xmlns="http://www.w3.org/2000/svg">
  <g>
    <title>background</title>
    <!--<rect fill="none" id="canvas_background" height="200" width="200" y="0" x="0"/>-->
  </g>
  <defs>
    <radialGradient id="svg_29" spreadMethod="pad" cx="0.5" cy="0.5" r="0.489">
      <stop stop-color="#ffffff" offset="1"/>
      <stop stop-color="#01458E" offset="1"/>
    </radialGradient>
    <radialGradient id="svg_31" spreadMethod="pad" cx="0.5" cy="0.5" r="0.49">
      <stop stop-color="#ffffff" offset="1"/>
      <stop stop-color="#01458E" offset="1"/>
    </radialGradient>
  </defs>
  <g>
    <title>Layer 1</title>
    <g stroke="null" id="svg_1">
      <path stroke="null" id="svg_11"
            d="m99.87221,0c55.00652,0 99.87077,44.86474 99.87077,99.87269c0,55.00748 -44.86426,99.87221 -99.87077,99.87221c-55.00652,0 -99.87221,-44.86474 -99.87221,-99.87221c0,-55.00796 44.8657,-99.87269 99.87221,-99.87269zm0,2.19517c53.80059,0 97.67512,43.8779 97.67512,97.67753c0,53.79915 -43.87453,97.67705 -97.67512,97.67705c-53.80059,0 -97.67753,-43.8779 -97.67753,-97.67705c0,-53.79963 43.87693,-97.67753 97.67753,-97.67753z"
            fill="url(#svg_29)" stroke-width="0"/>
      <path stroke="null" id="svg_10"
            d="m99.87221,29.08393c38.98837,0 70.78924,31.79895 70.78924,70.78876c0,38.98933 -31.80087,70.78828 -70.78924,70.78828c-38.98837,0 -70.78924,-31.79895 -70.78924,-70.78828c0,-38.98981 31.80087,-70.78876 70.78924,-70.78876zm0,1.09734c38.38301,0 69.68902,31.30601 69.68902,69.69142c0,38.38493 -31.30601,69.69094 -69.68902,69.69094c-38.38301,0 -69.68902,-31.30601 -69.68902,-69.69094c0,-38.38541 31.30601,-69.69142 69.68902,-69.69142z"
            fill="url(#svg_31)"/>
      <path stroke="null" id="svg_3"
            d="m92.09376,58.92938l0,0zm0,0l0,17.50561c-5.09275,-2.87164 -10.05578,-5.87588 -15.18697,-8.7062c-3.28146,5.95083 -6.74549,11.71765 -10.09902,17.59738c5.00627,2.9586 10.15187,5.78027 15.10049,8.79893c-5.01107,2.95428 -10.16628,5.7673 -15.10049,8.79845c3.40638,5.79661 6.78873,11.61436 10.09902,17.50609c5.17923,-2.72366 10.23355,-6.06662 15.27825,-8.61396c-0.0048,5.09131 0.0048,11.71189 0,17.41289c6.76471,0 13.52462,0 20.28452,0c0,-5.83552 0,-11.67057 0,-17.50465c5.10236,2.86299 10.07019,5.86291 15.19177,8.70572c3.35833,-5.87156 6.82236,-11.6403 10.09422,-17.59786c-4.98705,-2.97686 -10.15187,-5.77835 -15.09568,-8.79845c5.06873,-2.8947 10.22874,-5.69956 15.09568,-8.79941c-3.40638,-5.82255 -6.68784,-11.77531 -10.1855,-17.50513c-4.97264,2.87164 -10.13265,6.04452 -15.10049,8.61348c0,-5.8043 0,-11.60859 0,-17.41289c-6.73108,0 -13.64473,0 -20.37581,0"
            fill="#01458E"/>
      <path stroke="null" id="svg_4"
            d="m101.23188,93.08396c-0.93207,0.12059 -1.84492,0.25512 -2.87308,0.27866c-0.09129,-2.60019 -0.27866,-7.13129 -0.27866,-10.37336c0,-1.22082 0.10089,-2.56271 -0.09129,-3.42752c-0.14894,-0.66206 -0.71106,-0.9633 -0.83598,-1.57395c-0.3171,-1.56818 0.92246,-3.05901 2.13319,-3.24206c2.8923,-0.43769 4.01174,2.91344 2.31576,4.72377c-0.16335,4.50036 -0.16335,9.16119 -0.36995,13.61446z"
            fill="#ffffff"/>
      <path stroke="null" id="svg_5"
            d="m102.06306,82.80381c4.497,0.0245 9.09488,2.85002 9.07567,7.03905c-0.01441,3.77248 -4.13666,5.19701 -7.4998,5.74232c-2.02749,0.32767 -4.25197,-0.00144 -6.20739,0.64812c-1.18671,0.39445 -2.74336,1.99482 -2.59442,3.52024c0.15855,1.5653 2.0371,1.78631 3.24303,2.13031c0,1.01759 0,2.03614 0,3.05517c-3.3199,-0.28154 -5.87108,-1.72865 -6.20739,-4.53735c-0.23062,-1.96119 0.74469,-4.47249 2.7818,-5.64959c3.04604,-1.76373 8.22527,-0.85183 11.02148,-2.40801c0.78313,-0.43721 1.65755,-1.46296 1.75844,-2.40849c0.26905,-2.45989 -2.80101,-4.49748 -5.4627,-4.63104c0.06246,-0.80331 -0.12492,-1.85165 0.09129,-2.50073z"
            fill="#ffffff"/>
      <path stroke="null" id="svg_6"
            d="m97.52763,83.26696c0.42279,0.50303 0.06726,1.7839 0.18257,2.59346c-1.70559,0.66782 -3.04604,1.67052 -4.44415,2.68619c-1.32604,0.95753 -2.70012,2.29414 -4.63152,2.3148c-0.27386,-2.36525 1.37889,-3.87193 2.77699,-5.09371c1.57107,-1.36832 4.08381,-1.71376 6.11611,-2.50073zm-6.856,5.18692l0,0c0.62939,1.53455 1.83051,-1.26166 0.36995,-0.64861c-0.44682,0.18737 -0.49006,0.35313 -0.36995,0.64861z"
            fill="#ffffff"/>
      <path stroke="null" id="svg_7"
            d="m91.04158,87.80528c1.46056,-0.61305 0.25944,2.18316 -0.36995,0.64861c-0.12011,-0.29548 -0.07687,-0.46123 0.36995,-0.64861z"
            fill="#01458E"/>
      <path stroke="null" id="svg_8"
            d="m101.23188,96.04881c-0.19698,4.5287 -0.20179,9.2443 -0.37475,13.79991c1.33565,0.21956 2.94515,-1.75268 2.87308,-2.77891c-0.06726,-1.01519 -1.26358,-1.26646 -2.22448,-1.66716c0,-0.86433 0,-1.72865 0,-2.59298c2.09956,0.83934 5.09275,2.2951 4.54024,5.18692c-0.40358,2.11205 -3.05565,2.79285 -5.18884,3.42608c-0.18257,4.4797 -0.17296,9.14821 -0.36995,13.61542c-0.46123,0 -0.92246,0 -1.3885,0c-0.2162,-4.25869 -0.17296,-8.77779 -0.36995,-13.05906c-0.18257,-0.20611 -0.61497,0.12059 -1.01855,0c-0.05285,0.42087 0.61978,0.11963 0.64861,0.46267c0,0.95705 0,1.91459 0,2.87164c-4.41532,0.86144 -3.04604,-6.08055 0.36995,-5.27868c-0.17777,-4.48258 -0.18257,-9.14341 -0.36995,-13.61542c0.93687,-0.14558 1.8209,-0.3416 2.87308,-0.37043z"
            fill="#ffffff"/>
      <path stroke="null" id="svg_9"
            d="m101.32317,112.72036c3.14213,0.37667 4.37688,2.6636 4.72281,5.83504c-1.49419,-1.06756 -2.54638,-2.57857 -4.72281,-2.96437c0,-0.95753 0,-1.91314 0,-2.87068z"
            fill="#ffffff"/>
      <path stroke="null" id="svg_12"
            d="m111.648,9.28034c0.28827,-0.29644 0.56693,-0.53474 0.83598,-0.71923c0.19698,-0.13741 0.25464,-0.27241 0.15855,-0.4055c-1.74403,-0.6193 -2.90191,-0.98204 -3.45923,-1.08773c-0.92727,1.51389 -1.80649,2.63093 -2.64247,3.34584c-0.99933,0.97819 -2.16682,1.77622 -3.50727,2.39984c0.92727,0.63996 1.62392,1.29241 2.08034,1.95927c0.33151,-0.22773 0.82637,-0.54098 1.48459,-0.94216l10.45936,1.9684l-0.13933,0.75911l-11.05511,-2.07938l-0.37955,2.02605l11.05031,2.07986l-0.17296,0.92871l-11.30495,-2.12742l-0.37955,2.02317l14.08674,2.65063l1.47498,-7.84668l-2.7818,-0.52321c0.48525,-0.43 1.14347,-1.12281 1.96503,-2.07554c0.22101,-0.24887 0.37475,-0.4545 0.46123,-0.61017c0.06726,-0.0466 0.01922,-0.11483 -0.13453,-0.20035l-8.10036,-1.5235zm3.31509,2.80726l-0.88402,0.96714l-5.30895,-0.99981c0.39397,-0.27193 0.77352,-0.58086 1.13386,-0.91958l5.05912,0.95225zm-11.14159,7.68621c-0.60536,1.33997 -1.64313,2.71645 -3.13733,4.12417c0.81676,0.6193 1.49419,1.18334 2.0419,1.6955c1.47498,-1.64505 2.61844,-3.08832 3.4352,-4.3322c0.06726,-0.04708 0.07207,-0.07591 0.01441,-0.08648c0,0 0,0 0,0l-2.3542,-1.40099zm9.36874,8.22527c1.34045,0.31133 2.21487,0.30076 2.62805,-0.03123c0.45643,-0.26088 0.90805,-1.10743 1.35006,-2.54109c-0.60536,-0.17008 -1.35486,-0.516 -2.2485,-1.03441c-0.33151,-0.11771 -0.49006,-0.17777 -0.49006,-0.17777c-0.14894,1.07909 -0.55252,1.52494 -1.21553,1.34429l-3.62738,-0.68272c-0.3267,-0.12155 -0.46123,-0.35121 -0.39397,-0.68608l0.23542,-1.26694c0.06246,-0.33824 0.19218,-0.69088 0.37475,-1.06563c0.10089,-0.21236 0.15855,-0.34736 0.16816,-0.40502c-0.02883,-0.18017 -0.18257,-0.29451 -0.46123,-0.34736c-0.26905,-0.1105 -0.88402,-0.25224 -1.84012,-0.4324l-0.67263,-0.12636l-0.77833,4.13185c-0.36514,1.32892 0.2114,2.10869 1.74403,2.3369l5.22728,0.98396zm5.2513,-0.0591c1.29721,-0.39685 2.19084,-0.63563 2.67129,-0.72019c-0.29788,-1.51293 -0.83598,-2.98214 -1.61431,-4.41051c-1.06179,0.381 -1.93621,0.68272 -2.61844,0.90468c0.80235,1.31739 1.32604,2.72366 1.56146,4.22602zm-4.8189,-3.61633c-0.01922,-1.4572 -0.14413,-2.47239 -0.38916,-3.04364l-2.42146,0.33103c0.20179,0.79418 0.30268,1.80456 0.30268,3.02682l2.50794,-0.31421z"
            fill="#01458E"/>
      <path stroke="null" id="svg_13"
            d="m144.46261,27.87128c0.24503,0.6241 0.46123,1.33084 0.639,2.12454c0.36034,-0.08984 0.94648,-0.28443 1.76324,-0.59191c0.81676,-0.30797 1.40291,-0.50543 1.75844,-0.59239c-0.24983,-0.70434 -0.55732,-1.52158 -0.92246,-2.45125c-0.92246,0.44345 -1.87855,0.78745 -2.86828,1.03585l1.99866,-2.58049l3.05565,2.36525l1.36447,-1.76373l-1.42693,-1.10311l1.79207,0.62795c0.28346,-0.36178 0.62939,-1.14251 1.05218,-2.3369l-2.45989,-1.03152c-0.16816,0.59095 -0.49967,1.34814 -0.99453,2.26772l-1.01855,-0.78938l0.89363,-1.15548c0.20659,-0.26953 0.44201,-0.52369 0.70145,-0.76007c0.2162,-0.19218 0.34112,-0.35169 0.36514,-0.47516c-0.14894,-0.18449 -0.58615,-0.59864 -1.32123,-1.23908l-0.74469,-0.57798l-1.99866,2.58049l-3.05565,-2.36525l-1.36447,1.76373l3.05565,2.36525l-3.20459,4.14146c-0.85039,0.0663 -2.3542,-0.04756 -4.51141,-0.3416c-0.37955,-0.07495 -0.56693,-0.11339 -0.56693,-0.11339c-0.34112,1.47161 -0.5381,2.47575 -0.59576,3.01289c0.05765,0.11579 0.38436,0.11531 0.98011,-0.00192c0.99933,-0.16912 1.98906,-0.27386 2.95956,-0.3171l-1.73442,2.24177c-0.27866,0.36178 -0.52849,0.49534 -0.74469,0.40021c-0.20659,-0.01537 -0.63419,-0.34736 -1.2876,-0.99741c-0.26905,1.09398 -0.58134,2.01068 -0.93687,2.75057c1.14347,0.95321 1.97945,1.45768 2.51755,1.51197c0.58134,0.09032 1.15308,-0.22773 1.7152,-0.95177l2.72895,-3.53081c0.3171,1.1843 0.57173,2.53821 0.76391,4.06459l2.91632,-0.67695c-0.60536,-1.84204 -1.0666,-3.20843 -1.38369,-4.10783c-0.24983,-0.69905 -0.43721,-1.20496 -0.56212,-1.51822l0.68224,-0.88354zm9.17176,3.30116c-1.67196,1.88432 -3.06526,3.12195 -4.1751,3.71242c0.40358,-1.64169 1.16268,-3.36986 2.27252,-5.185l1.90257,1.47257zm0.25464,-2.84858c0.26425,-0.15663 0.65341,-0.43096 1.1771,-0.82397c1.08581,-0.74902 1.62392,-1.16509 1.61911,-1.24484c-0.61017,-0.9018 -1.2828,-1.71424 -2.02749,-2.43395c-2.48392,2.92737 -5.59242,5.25995 -9.3255,6.99965c0.62939,0.77881 1.11944,1.44711 1.47978,2.015l0.90324,-0.60585c-0.49967,1.20689 -0.87442,2.43683 -1.12425,3.69321c-1.89297,0.48717 -3.94448,0.2777 -6.13532,-0.62795c0.1105,0.88354 0.12011,1.90354 0.01922,3.05949c1.64794,0.40165 3.65141,0.47228 6.02482,0.21188c0.27386,1.79784 0.58134,3.41118 0.92727,4.83715c0.0048,0.07975 0.55252,-0.11242 1.63833,-0.57414c0.70145,-0.25416 1.26358,-0.4694 1.69118,-0.6462c-0.59095,-1.10791 -1.08101,-2.5334 -1.46537,-4.28079c2.45989,-1.21073 4.56426,-2.90479 6.3275,-5.08747l1.29241,0.99741l1.52302,-1.96936l-4.54504,-3.51928zm-13.87054,-6.06566c-0.03363,0.04612 -0.1057,0.27722 -0.2162,0.70145c-0.13933,1.11944 -0.35073,2.04431 -0.62939,2.77123l2.67129,0.76439c0.43721,-1.69022 0.67743,-2.84329 0.72067,-3.46019l-2.54638,-0.77688z"
            fill="#01458E"/>
      <path stroke="null" id="svg_14"
            d="m63.06027,148.66077c13.84652,3.82629 22.47056,-9.25295 39.03161,-1.04353c11.61724,-8.07057 25.53102,0.55636 38.60882,-1.67004c-10.64193,8.35211 -22.11984,-0.41126 -35.06311,3.14021c2.16682,0.9854 4.55465,2.7448 7.16348,5.27917c0.61978,0.89171 -0.25464,2.28117 -1.37889,1.18238c-3.45442,-3.37419 -6.57734,-5.42138 -9.36394,-6.14109c-3.13733,1.42261 -6.11611,4.06171 -9.03243,7.25381c-0.80235,0.54723 -1.85453,-0.1499 -1.16268,-1.09542c1.67196,-2.16154 3.88683,-4.14291 6.88482,-5.86195c-12.10249,-2.2264 -24.20979,7.23555 -35.68769,-1.04353z"
            fill="#01458E"/>
      <path stroke="null" id="svg_15"
            d="m131.33196,52.6134c3.37275,6.57638 7.88896,11.75513 14.44227,14.4442c-2.51755,-7.11159 -7.33164,-11.92665 -14.44227,-14.4442zm-58.90295,0c-3.37275,6.57638 -7.88896,11.75513 -14.44227,14.4442c2.51755,-7.11159 7.33164,-11.92665 14.44227,-14.4442zm-4.08861,70.94635c-2.94515,7.0107 4.22314,12.65308 3.78113,17.03333c-4.84292,-0.06678 -13.28439,-7.82218 -21.70665,-7.75924c7.98505,9.6205 23.49872,8.52892 27.52007,9.99573c-6.31309,-4.64161 -3.97811,-11.10316 -9.59455,-19.26982zm-7.70639,-9.66133c-4.41051,7.25573 2.63766,13.38673 2.19084,17.76698c-3.98292,-0.80043 -10.58908,-9.90108 -17.54597,-13.50684c3.33912,14.63445 20.19804,14.52155 22.509,18.43384c-4.85253,-6.96506 -2.39263,-15.38347 -7.15387,-22.69397zm-3.66582,-11.6182c-4.41051,7.25573 0.18737,11.55286 -2.08995,17.03381c-3.86761,-3.858 -6.06806,-10.14611 -10.8245,-14.36348c-2.0419,9.98756 11.39623,14.15449 12.72707,19.65706c0.28827,-9.41102 3.59856,-15.13892 0.18737,-22.32739zm-1.83531,-12.10681c-5.39063,5.17635 -2.37822,10.45167 -4.66035,15.93262c-3.8628,-3.858 -3.8628,-14.18139 -7.27399,-19.13289c-3.87241,9.98756 6.62538,19.04641 7.95622,24.54898c1.75364,-8.06576 4.8237,-15.13892 3.97811,-21.34872zm3.65141,-13.17773c-7.02415,2.82696 -5.83264,10.68949 -9.94047,14.97413c-0.88402,-5.78652 0.48525,-13.42805 -0.39877,-19.08196c-5.60683,6.35969 0.35553,16.65089 -0.39397,22.26253c4.5018,-6.75847 9.27265,-12.05877 10.73321,-18.1547zm6.49086,-11.39575c-6.36113,1.89921 -7.81689,7.77365 -12.3235,10.86582c0.57654,-6.05125 3.80035,-10.91002 4.5066,-16.56393c-4.81409,2.11926 -4.94862,13.60293 -5.69812,19.21409c4.5066,-4.50516 10.73321,-7.42052 13.51501,-13.51597zm70.14544,57.95983c2.94515,7.0107 -4.22314,12.65308 -3.78113,17.03333c4.84292,-0.06678 13.28439,-7.82218 21.70665,-7.75924c-7.98505,9.6205 -23.49872,8.52892 -27.52007,9.99573c6.31789,-4.64161 3.97811,-11.10316 9.59455,-19.26982zm7.70639,-9.66133c4.41051,7.25573 -2.63766,13.38673 -2.19084,17.76698c3.98772,-0.80043 10.58908,-9.90108 17.54597,-13.50684c-3.33912,14.63445 -20.19804,14.52155 -22.50419,18.43384c4.84772,-6.96506 2.38783,-15.38347 7.14907,-22.69397zm3.67062,-11.6182c4.41051,7.25573 -0.19218,11.55286 2.08995,17.03381c3.8628,-3.858 6.06326,-10.14611 10.81969,-14.36348c2.0419,9.98756 -11.39623,14.15449 -12.72707,19.65706c-0.28346,-9.41102 -3.59856,-15.13892 -0.18257,-22.32739zm1.83051,-12.10681c5.39063,5.17635 2.37822,10.45167 4.66035,15.93262c3.8628,-3.858 3.8628,-14.18139 7.27399,-19.13289c3.87722,9.98756 -6.62538,19.04641 -7.95622,24.54898c-1.75364,-8.06576 -4.8237,-15.13892 -3.97811,-21.34872zm-3.6466,-13.17773c7.01935,2.82696 5.82784,10.68949 9.93567,14.97413c0.88402,-5.78652 -0.48525,-13.42805 0.39877,-19.08196c5.61164,6.35969 -0.35553,16.65089 0.39877,22.26253c-4.5066,-6.75847 -9.27746,-12.05877 -10.73321,-18.1547zm-6.49566,-11.39575c6.36113,1.89921 7.81689,7.77365 12.3235,10.86582c-0.57173,-6.05125 -3.79554,-10.91002 -4.5066,-16.56393c4.8189,2.11926 4.94862,13.60293 5.69812,19.21409c-4.5018,-4.50516 -10.73321,-7.42052 -13.51501,-13.51597z"
            fill="#01458E"/>
      <path stroke="#01458E" id="svg_16"
            d="m185.56015,89.38019l-1.3933,0.0197l0.09129,-1.81081l1.3933,-0.0197l-0.09129,1.81081z" fill="#000000"/>
      <path stroke="#01458E" id="svg_17"
            d="m185.56015,89.38019l-1.3933,0.0197l0.09129,-1.81081l1.3933,-0.0197l-0.09129,1.81081z" fill="#000000"/>
      <path stroke="#01458E" id="svg_18"
            d="m17.4273,89.38019l-1.3933,0.0197l0.09129,-1.81081l1.3933,-0.0197l-0.09129,1.81081z" fill="#000000"/>
      <path stroke="#01458E" id="svg_19"
            d="m17.4273,89.38019l-1.3933,0.0197l0.09129,-1.81081l1.3933,-0.0197l-0.09129,1.81081z" fill="#000000"/>
      <path stroke="null" id="svg_20"
            d="m40.95485,39.6192l-4.14627,3.72828l1.52783,1.69598l4.14146,-3.72876l3.78593,4.20584l-5.71253,5.1408l1.58067,1.757l14.00026,-12.59735l-1.58067,-1.75748l-3.07967,2.7693c0.1105,-0.4742 0.24022,-1.12569 0.40838,-1.9535c0.00961,-0.23926 0.03844,-0.41655 0.08648,-0.53378c-1.46056,-0.27626 -3.04604,-0.47997 -4.75163,-0.61065c-0.2162,1.0272 -0.44201,1.87279 -0.67263,2.53917c1.61911,0.28202 3.11811,0.60104 4.49219,0.95417l-2.63766,2.37149l-3.78113,-4.20584l4.45856,-4.0103l-1.52783,-1.6955l-4.45856,4.0103l-2.82504,-3.13925l5.08795,-4.57483l-1.64313,-1.82138l-12.05445,10.84564l1.64313,1.82138l4.83331,-4.34998l2.82504,3.13925z"
            fill="#01458E"/>
      <path stroke="null" id="svg_21"
            d="m63.22362,16.46496l0.68224,2.26339l2.67129,-0.80283l0.87442,2.91248l-2.34939,0.7053l0.65821,2.1846l2.34459,-0.7053l1.11944,3.71963c-0.37955,0.29211 -1.10023,0.74133 -2.15241,1.35102c-0.28827,0.20803 -0.46603,0.31662 -0.51408,0.33199c0.7543,0.95081 1.43654,1.86222 2.05632,2.73471c0.23542,-0.18786 0.7495,-0.63563 1.53743,-1.34285c1.68637,-1.6244 2.90191,-2.75489 3.65141,-3.39341c-0.29307,0.97243 -0.67743,1.76132 -1.13866,2.37005c1.16749,0.17969 2.11878,0.39493 2.83945,0.64764c0.56212,-1.05362 1.16749,-3.05565 1.81129,-6.01089l2.21006,7.3571l2.58962,-0.77833l-3.06526,-10.18983c1.91218,1.66043 3.53129,3.43809 4.86214,5.32913l2.2485,-1.90978c-2.23889,-2.56223 -4.19431,-4.47297 -5.86627,-5.73079c-0.65821,0.54723 -1.17229,0.99453 -1.53743,1.34189l-0.50928,-1.6979c0.0048,-0.17777 -0.02402,-0.46363 -0.08168,-0.86c-0.10089,-0.91045 -0.18257,-1.58884 -0.26425,-2.03566l4.77566,-1.43462l-0.68224,-2.26387l-11.64606,3.50151l0.07207,0.24119l-7.19711,2.16442zm11.85266,-1.35775c0.65341,3.15558 0.39397,6.40486 -0.77352,9.75454l-0.46123,-1.53551l-0.08168,0.02498c-0.69665,0.61882 -1.42213,1.22178 -2.19084,1.80552l-0.87442,-2.91248l2.42626,-0.72932l-0.65821,-2.18412l-2.42626,0.72932l-0.87442,-2.91296l2.10436,-0.63131l-0.07207,-0.24167l3.88202,-1.16701z"
            fill="#01458E"/>
      <path stroke="null" id="svg_22"
            d="m9.75454,97.12741l-0.08168,2.38687l3.67062,0.12876l7.51901,4.06219l0.08648,-2.4474l-5.12158,-2.56896l5.28493,-2.14568l0.10089,-2.87837l-7.78807,3.59087l-3.67062,-0.12828zm0.56693,13.32619l0.16335,2.32056c0.16335,-0.01201 0.40838,-0.02883 0.73509,-0.05141c0.28346,-0.0591 0.50447,-0.09561 0.66782,-0.10714l6.47644,-0.45258l-0.16816,-2.38302l-4.76605,0.33343c-1.10503,0.03507 -1.72481,-0.39301 -1.86894,-1.28184c-0.06246,-0.89652 0.49486,-1.40723 1.67196,-1.52879l4.76605,-0.33343l-0.16335,-2.32297l-5.13119,0.35889c-0.49006,0.03411 -0.89363,0.10426 -1.21073,0.20803c-0.95609,0.39445 -1.44615,1.30874 -1.47017,2.74336c0.07687,1.05843 0.49967,1.82811 1.26838,2.30567l-0.97051,0.19122zm1.2828,7.56754l4.6123,-0.98059c1.14347,-0.11723 1.84492,0.21524 2.08995,0.99597c0.19698,0.92054 -0.30749,1.50572 -1.5038,1.75988l-4.6123,0.98059l0.49486,2.33642l5.0351,-1.06948c0.3171,-0.06822 0.70626,-0.2114 1.15788,-0.43384c0.90324,-0.48237 1.27799,-1.44183 1.14347,-2.87212c-0.23542,-1.11944 -0.78313,-1.81802 -1.63352,-2.09427l-0.01441,-0.06102l4.31443,-0.91718l-0.48525,-2.27781l-11.08394,2.35612l0.48525,2.27732zm3.50247,12.68383l0.71587,2.21198c0.15855,-0.05045 0.38916,-0.12588 0.70145,-0.22677c0.25944,-0.12588 0.46603,-0.21524 0.61978,-0.26521l6.17376,-2.00635l-0.73509,-2.27204l-4.54504,1.47642c-1.06179,0.30124 -1.76805,0.03651 -2.12358,-0.7913c-0.27866,-0.85472 0.13933,-1.48507 1.25397,-1.88768l4.54024,-1.47642l-0.71587,-2.21487l-4.89096,1.58932c-0.47084,0.15182 -0.84559,0.31758 -1.12905,0.49582c-0.83118,0.61353 -1.08581,1.61911 -0.75911,3.01673c0.3267,1.00894 0.92246,1.65322 1.78727,1.93092l-0.89363,0.41943zm7.14427,7.36719c-1.40291,0.6659 -2.29174,0.57077 -2.6761,-0.28587c-0.26425,-0.68704 -0.08168,-1.19247 0.5333,-1.51149c0.86,-0.38148 1.57107,0.21668 2.1428,1.79736zm0.91766,-2.75777c0.70626,-0.22533 1.20112,-0.06534 1.48939,0.47853c0.22581,0.61401 0.07687,1.08101 -0.44682,1.40627l-0.67743,0.2998c-0.52849,-1.19391 -1.0762,-2.06977 -1.63352,-2.62373c-0.87922,-0.77304 -1.87855,-0.95225 -2.99319,-0.54723c-1.29241,0.61978 -1.63352,1.70992 -1.02335,3.27329c0.4276,1.05939 1.11464,1.64938 2.05632,1.76421l0,0c-0.29788,0.13308 -0.59576,0.31133 -0.89844,0.53522l0.84559,1.90306c0.22581,-0.09993 0.40358,-0.20227 0.5333,-0.30364c0.06246,-0.07255 0.12492,-0.12444 0.20179,-0.15711l3.91565,-1.74451c1.79207,-0.79754 2.23889,-2.20382 1.34045,-4.21641c-0.41319,-0.93351 -0.87922,-1.57539 -1.3933,-1.92708c-0.65821,-0.4694 -1.40291,-0.5381 -2.23889,-0.21044l0.92246,2.06977zm5.91432,6.63019l-1.26838,-1.95254l-6.62538,4.30289l1.26838,1.95254l3.95409,-2.56896c1.02335,-0.51936 1.79688,-0.45931 2.31096,0.18065c0.50928,0.7889 0.24983,1.51581 -0.77352,2.1822l-3.95889,2.56896l1.30201,2.00347l4.31443,-2.80293c0.27386,-0.17777 0.58134,-0.45018 0.92727,-0.82061c0.66782,-0.77304 0.67743,-1.80408 0.03844,-3.09072c-0.62458,-0.95994 -1.38369,-1.41636 -2.27732,-1.3688l0.01922,-0.08648l0.76872,-0.49967zm-0.08168,13.62984l4.99666,5.95804l1.45576,-1.2213l-3.4256,-4.08237l2.30135,-1.92852l3.07006,3.65957l1.45576,-1.2213l-3.07006,-3.65957l2.01308,-1.69166l3.31029,3.94208l1.45576,-1.2213l-4.88135,-5.81775l-8.6817,7.28408zm13.79367,3.69657l-1.75364,-1.52783l-5.18404,5.96284l1.80168,1.56866l3.09409,-3.56012c0.78313,-0.83646 1.53743,-0.99116 2.27252,-0.46267c0.67263,0.58807 0.62458,1.36063 -0.14413,2.31096l-3.09409,3.56012l1.75364,1.5259l3.09409,-3.56012c0.84559,-0.78121 1.59989,-0.93591 2.27252,-0.46219c0.70626,0.6169 0.65821,1.38753 -0.14413,2.31048l-3.09409,3.5606l1.80168,1.56674l3.09409,-3.56012c0.56212,-0.64668 0.91766,-1.1771 1.06179,-1.59124c0.19218,-0.96954 -0.11531,-1.88912 -0.92727,-2.75825c-0.84078,-0.78073 -1.84012,-0.99981 -3.0028,-0.65725c0.25464,-0.91621 -0.05285,-1.83579 -0.92727,-2.75825c-0.80235,-0.69809 -1.65755,-0.92534 -2.5704,-0.68752l-0.04804,-0.04084l0.6438,-0.73989zm12.88082,15.51704c0.28827,-0.4449 0.54771,-0.88354 0.78313,-1.31691c0.23062,-0.43288 0.36514,-0.90564 0.40838,-1.41492c0.14894,-1.36015 -0.45643,-2.48632 -1.8257,-3.37563c-2.05632,-1.18815 -3.85319,-0.70193 -5.40504,1.45816c-1.52302,2.27204 -1.21073,4.07997 0.93207,5.42618c1.84973,1.20016 3.30548,1.17037 4.36727,-0.08888l-1.79688,-1.16701c-0.55252,0.4718 -1.13866,0.47853 -1.76805,0.0221c-0.81196,-0.47757 -0.83118,-1.27031 -0.06246,-2.3787l4.36727,2.83561zm-3.50247,-4.17029c0.639,-0.9018 1.31162,-1.12137 2.0323,-0.65293c0.78794,0.5112 0.88402,1.22995 0.28346,2.15481l-2.31576,-1.50188zm7.11544,0.96618c-0.1105,0.2162 -0.24983,0.5357 -0.41799,0.95513c-0.12972,0.25368 -0.2114,0.41895 -0.24983,0.49102l-2.86347,5.62172l2.07073,1.05603l1.78246,-3.49334c0.01922,-0.03699 0.05285,-0.10906 0.1105,-0.2186c0.29307,-0.39877 0.56212,-0.69809 0.79754,-0.89748c0.29788,-0.1254 0.72548,-0.11242 1.29241,0.03796l0.92727,0.47228l0.94648,-1.85597c-1.16268,-0.6832 -2.19565,-0.63755 -3.09889,0.14125l-0.05765,-0.02883l0.66782,-1.30826l-1.90738,-0.97291zm6.46683,7.30954c0.65341,-1.54224 1.45095,-2.11301 2.39263,-1.71376c0.93687,0.39829 1.08101,1.36832 0.4276,2.91056c-0.60536,1.42885 -1.38369,1.94341 -2.32056,1.54512c-0.94168,-0.39925 -1.10503,-1.31306 -0.49967,-2.74192zm6.52449,-1.42069l-2.19565,-0.93351l-0.36034,0.84415l0,0c-0.05285,-0.81964 -0.56693,-1.4375 -1.54704,-1.85357c-1.9266,-0.68416 -3.45923,0.10714 -4.59789,2.37486c-0.82157,2.35612 -0.33631,3.98147 1.45576,4.87703c0.94168,0.39925 1.75364,0.3661 2.44068,-0.09849l0,0c-0.46603,1.71184 -1.29721,2.31288 -2.49833,1.80216c-0.7495,-0.31854 -1.03777,-0.79466 -0.8552,-1.42789l-2.0323,-0.86192c-0.62939,1.59461 0.15855,2.86155 2.37822,3.80323c2.42626,1.07572 4.09822,0.43096 5.01107,-1.92948l2.80101,-6.59655zm7.46617,7.07316c0.14413,-0.50976 0.26425,-1.00558 0.36034,-1.48843c0.09609,-0.48141 0.08648,-0.97339 -0.01922,-1.47257c-0.25464,-1.34477 -1.16268,-2.24417 -2.73375,-2.69435c-2.31096,-0.5357 -3.89163,0.45546 -4.74202,2.97445c-0.79274,2.61844 0.03363,4.25581 2.47911,4.91643c2.11878,0.60729 3.50247,0.15278 4.14627,-1.36111l-2.06112,-0.59047c-0.38436,0.61161 -0.94648,0.79034 -1.68157,0.53714c-0.91285,-0.21908 -1.16749,-0.97099 -0.7543,-2.2557l5.00627,1.43462zm-4.56906,-2.96485c0.34592,-1.04834 0.92727,-1.45576 1.75364,-1.21842c0.90324,0.25848 1.20112,0.91814 0.89844,1.97849l-2.65207,-0.76007zm9.77232,-0.73749l-2.28213,-0.44441l-1.50861,7.7554l2.28693,0.44441l0.89844,-4.63056c0.33631,-1.09782 0.91766,-1.61094 1.73442,-1.53503c0.92246,0.17969 1.26358,0.87201 1.03296,2.07265l-0.90324,4.63056l2.34459,0.45595l0.98492,-5.05143c0.06246,-0.32094 0.08168,-0.73268 0.05285,-1.23812c-0.09129,-1.01663 -0.82637,-1.74018 -2.19565,-2.17403c-1.12425,-0.21812 -1.98425,0.01201 -2.5704,0.68848l-0.04804,-0.07351l0.17296,-0.90036zm13.40451,4.27359c0.08648,-1.92083 -0.98492,-3.01962 -3.2142,-3.29587c-2.17163,-0.0245 -3.47364,1.25445 -3.90124,3.8407c-0.06726,2.61748 0.99453,4.06411 3.18537,4.33701c2.19565,0.19218 3.44001,-0.70338 3.73789,-2.68715l-2.32056,-0.20275c-0.12492,1.01423 -0.55732,1.48795 -1.29241,1.42405c-0.64861,-0.05669 -0.94648,-0.90132 -0.88402,-2.53533c0.00961,-0.12251 0.01922,-0.20323 0.02402,-0.24503c0,-0.0418 0.00961,-0.12251 0.01922,-0.24455c0.25464,-1.49419 0.66782,-2.21631 1.23475,-2.16682c0.73509,0.06438 1.09542,0.58903 1.09062,1.57251l2.32056,0.20323zm5.1456,2.42819l0,0l-1.90257,-5.38582l-2.51274,0.08792l3.27666,7.79095l-0.87922,2.91248l2.32537,-0.0812l3.60336,-10.9129l-2.32537,0.0812l-1.58548,5.50738zm17.63245,-9.93183l0.01441,0.06102l2.17643,9.42976l2.21006,-0.50976l-2.55118,-11.04166l-3.69945,0.85424l-0.6438,8.63558l-0.06246,0.01393l-4.18951,-7.5195l-3.87722,0.89508l2.55118,11.04166l2.20526,-0.50928l-2.17643,-9.43024l0.04324,-0.07447l5.11677,8.81574l1.96984,-0.4545l0.91285,-10.2076zm12.72227,2.25186c-0.18737,-0.49534 -0.38916,-0.9633 -0.60536,-1.40819c-0.2114,-0.44105 -0.51408,-0.82877 -0.90324,-1.16172c-1.00894,-0.9215 -2.27732,-1.09302 -3.80515,-0.50783c-2.16682,0.96426 -2.82984,2.7054 -1.99386,5.22872c0.94168,2.56944 2.58962,3.37899 4.93901,2.43491c2.05632,-0.78938 2.88749,-1.98473 2.49353,-3.5827l-2.00347,0.76776c0.06246,0.72211 -0.28346,1.20304 -1.01855,1.44134c-0.86481,0.37619 -1.51822,-0.07255 -1.96023,-1.3467l4.85733,-1.86558zm-5.42906,0.38003c-0.35553,-1.04497 -0.13453,-1.72 0.66782,-2.02797c0.87442,-0.33631 1.51341,0.01009 1.90738,1.03969l-2.5752,0.98828zm8.7874,-2.5041c-0.83598,-1.54608 -0.72548,-2.58817 0.33151,-3.1258c0.94648,-0.39157 1.83531,0.14029 2.67129,1.59605c0.66782,1.49227 0.56693,2.5065 -0.30749,3.04268c-1.05699,0.53714 -1.95542,0.03363 -2.69531,-1.51293zm1.6095,-4.25869l0,0c-0.78794,-0.37859 -1.59028,-0.37955 -2.41185,-0.01009c-1.97945,1.14779 -2.44068,2.94082 -1.38369,5.3815c1.33565,2.25378 2.96437,2.93698 4.89577,2.04431c1.01375,-0.5184 1.54224,-1.2434 1.57107,-2.17643l0,0c0.05285,0.10954 0.15855,0.26281 0.30268,0.46411c0.1105,0.21908 0.19698,0.38196 0.24983,0.4915l2.12839,-1.08485c-0.25944,-0.41991 -0.51888,-0.88306 -0.77352,-1.39042l-4.42493,-8.67882l-2.12839,1.08437l1.97464,3.87481zm3.28627,-2.87885l4.30482,6.62586l2.00347,-1.30105l-4.30482,-6.62586l-2.00347,1.30105zm-1.92179,-2.84521l1.10023,1.69454l2.10917,-1.36784l-1.10023,-1.69454l-2.10917,1.36784zm12.94328,-1.35871c-1.19151,-1.50621 -2.72414,-1.63112 -4.58828,-0.37715c-1.65274,1.40531 -1.79688,3.22381 -0.42279,5.45789c1.66716,2.01932 3.41599,2.41425 5.24649,1.18334c1.78727,-1.29673 2.13799,-2.78996 1.06179,-4.48162l-1.88336,1.3688c0.56693,0.84943 0.55252,1.49083 -0.04324,1.92275c-0.52849,0.38388 -1.30682,-0.05958 -2.33017,-1.33324c-0.07207,-0.09945 -0.12011,-0.16479 -0.14413,-0.19891c-0.02402,-0.03363 -0.07207,-0.09945 -0.14413,-0.19843c-0.78794,-1.29433 -0.95129,-2.10965 -0.49006,-2.44452c0.59576,-0.43336 1.21553,-0.27578 1.85453,0.46988l1.88336,-1.3688zm5.42906,-2.97205c1.0666,1.12569 1.24917,2.00299 0.55252,2.63093c-0.57173,0.46219 -1.10984,0.44922 -1.6047,-0.04132c-0.62458,-0.69713 -0.27866,-1.55953 1.05218,-2.58962zm-2.90671,-0.02066c-0.4324,-0.602 -0.4324,-1.12185 -0.0048,-1.56386c0.51408,-0.40646 1.00414,-0.40838 1.47498,-0.01009l0.49006,0.54771c-0.97051,0.87442 -1.63352,1.66331 -1.98906,2.36813c-0.46123,1.07524 -0.3219,2.07986 0.40358,3.01529c0.98972,1.03489 2.13319,1.02239 3.4304,-0.03844c0.87442,-0.73509 1.22514,-1.56962 1.04257,-2.50314l0,0c0.22101,0.24311 0.48045,0.47132 0.78794,0.69088l1.54704,-1.39378c-0.16335,-0.18209 -0.3171,-0.31998 -0.45162,-0.41415c-0.08648,-0.03411 -0.15855,-0.08023 -0.2114,-0.14029l-2.87308,-3.18729c-1.31162,-1.45672 -2.7866,-1.44711 -4.42012,0.02691c-0.75911,0.68416 -1.22995,1.32556 -1.40291,1.92371c-0.24503,0.76776 -0.08168,1.49852 0.49006,2.19421l1.68637,-1.51581zm0.79754,-8.51546l8.28773,7.72849l1.62872,-1.74691l-8.28773,-7.72849l-1.62872,1.74691zm12.28026,-10.19127c-1.87855,-1.16653 -3.56973,-0.77833 -5.07353,1.1574c-1.59989,2.56896 -1.47978,4.57146 0.35553,6.00752c1.23475,0.86673 2.80582,0.44345 4.70359,-1.26982c0.07687,-0.04276 0.19698,-0.13645 0.34592,-0.28058c1.05218,-1.00654 1.89777,-1.28664 2.53196,-0.84126c0.7495,0.57029 0.71587,1.46921 -0.09609,2.69868c-0.79274,0.98972 -1.72481,1.11128 -2.79621,0.3613l-1.40291,2.00635c2.01788,1.46296 3.86761,0.98972 5.55398,-1.41876c1.76324,-2.6564 1.68157,-4.68005 -0.23062,-6.07239c-1.24917,-0.92294 -2.85386,-0.45066 -4.80929,1.41828c-0.12972,0.11242 -0.20179,0.18401 -0.22581,0.21812c-1.00894,1.08629 -1.84492,1.3515 -2.50314,0.78938c-0.71106,-0.54579 -0.75911,-1.33084 -0.14894,-2.34699c0.68224,-0.97002 1.499,-1.14299 2.45989,-0.52177l1.33565,-1.90546zm8.90271,-5.72358c-0.46123,-0.25752 -0.91766,-0.48621 -1.36447,-0.68992c-0.45162,-0.20035 -0.93207,-0.30268 -1.44134,-0.30845c-1.36928,-0.05573 -2.45029,0.62747 -3.23822,2.05584c-1.04257,2.13271 -0.4324,3.89355 1.83051,5.28877c2.37341,1.36303 4.15588,0.92486 5.34739,-1.30874c1.0666,-1.92708 0.93687,-3.37755 -0.39397,-4.34758l-1.03777,1.87423c0.50928,0.51552 0.55732,1.10359 0.14413,1.75988c-0.41799,0.84319 -1.21073,0.91958 -2.36861,0.22917l2.52235,-4.55321zm-3.91565,3.78161c-0.94168,-0.57125 -1.20593,-1.22947 -0.79274,-1.98185c0.45643,-0.82013 1.16749,-0.96426 2.13319,-0.42952l-1.34045,2.41137zm0.48525,-7.40947c0.22101,0.09849 0.54771,0.22101 0.97531,0.36562c0.25944,0.11579 0.4276,0.19122 0.50447,0.22437l5.76057,2.56607l0.94648,-2.12502l-3.57934,-1.59461c-0.03844,-0.01682 -0.11531,-0.04997 -0.22581,-0.09993c-0.41319,-0.27289 -0.72548,-0.52657 -0.93687,-0.75238c-0.13933,-0.28827 -0.15374,-0.71635 -0.02883,-1.28904l0.42279,-0.95033l-1.90257,-0.84703c-0.62458,1.19632 -0.52369,2.22496 0.30268,3.08448l-0.02883,0.05717l-1.34045,-0.5972l-0.86961,1.95783zm10.63712,-5.26283l0.7495,-2.46182l-6.73108,-5.00387l-0.6438,2.10917l4.61711,3.33287l0,0l-5.67409,0.12396l-0.73509,2.40176l8.41745,-0.50207zm-5.40985,-8.84025l7.69678,1.77718l0.5381,-2.32729l-7.69678,-1.77766l-0.5381,2.32777zm-3.35833,-0.71347l1.96984,0.4545l0.56212,-2.44692l-1.96503,-0.4545l-0.56693,2.44692zm8.43667,-10.03224c-1.90738,-0.25368 -3.09409,0.72067 -3.56493,2.91728c-0.2114,2.15961 0.94648,3.56685 3.48805,4.22122c2.59922,0.29451 4.13185,-0.63755 4.59789,-2.79573c0.38436,-2.17211 -0.40358,-3.49142 -2.34939,-3.95985l-0.40838,2.29318c0.99933,0.2162 1.43654,0.688 1.30682,1.41108c-0.1105,0.6438 -0.98011,0.86481 -2.60403,0.6611c-0.12011,-0.02114 -0.19698,-0.03555 -0.24022,-0.04276c-0.04324,-0.00721 -0.12011,-0.02114 -0.24022,-0.04276c-1.47017,-0.3834 -2.15241,-0.85664 -2.05151,-1.4178c0.12492,-0.72548 0.68224,-1.04209 1.66235,-0.95129l0.40358,-2.29366zm2.31576,-8.64422c-0.5333,-0.03699 -1.04257,-0.05189 -1.53263,-0.04708c-0.49006,0.00769 -0.97051,0.11819 -1.43654,0.32959c-1.26358,0.52705 -1.95542,1.60278 -2.06593,3.23198c-0.04324,2.37341 1.25397,3.71146 3.89163,4.01895c2.72895,0.23254 4.15588,-0.91718 4.29521,-3.44626c0.15374,-2.19757 -0.57654,-3.45634 -2.19565,-3.77392l-0.14894,2.13799c0.68224,0.25175 0.97051,0.76487 0.87922,1.53359c-0.02402,0.94168 -0.71106,1.34429 -2.05151,1.20833l0.36514,-5.19316zm-1.95542,5.08218c-1.09542,-0.11867 -1.61431,-0.60296 -1.55185,-1.46056c0.06246,-0.93591 0.6438,-1.36688 1.74883,-1.29l-0.19698,2.75057zm-0.69665,-13.06867c-1.54704,0.1768 -2.28693,1.26454 -2.21487,3.26513c0.24022,2.15673 1.05699,3.25311 2.44548,3.28579c1.34526,0.03363 2.17163,-0.95465 2.4695,-2.96821c0.16816,-1.02576 0.47564,-1.56722 0.92246,-1.62488c0.57173,-0.02018 0.86961,0.33824 0.89363,1.07236c-0.00961,0.77688 -0.30268,1.21601 -0.86961,1.31691l0.07687,2.20478c1.54704,-0.13549 2.30135,-1.32796 2.26291,-3.57309c-0.24022,-2.23793 -1.09542,-3.39533 -2.5704,-3.46403c-1.62392,0.3834 -2.4647,1.39378 -2.52716,3.03019c-0.2114,1.0272 -0.48045,1.54897 -0.80715,1.5605c-0.49006,0.0173 -0.74469,-0.2825 -0.76872,-0.89363c0.01922,-0.65437 0.27386,-1.01134 0.76391,-1.06756l-0.07687,-2.14424z"
            fill="#01458E"/>
    </g>
  </g>
</svg>
